<svg width="256" height="256" viewBox="0 0 256 256" fill="none" xmlns="http://www.w3.org/2000/svg">
<path d="M242.526 128C242.526 64.7489 191.251 13.4737 128 13.4737C64.7489 13.4737 13.4737 64.7489 13.4737 128C13.4737 191.251 64.7489 242.526 128 242.526C191.251 242.526 242.526 191.251 242.526 128ZM256 128C256 198.692 198.692 256 128 256C57.3076 256 0 198.692 0 128C0 57.3076 57.3076 0 128 0C198.692 0 256 57.3076 256 128Z" fill="currentColor"/>
<path d="M115.247 27.7553C140.472 24.5463 165.98 30.9653 186.682 45.7316C207.383 60.4978 221.757 82.5257 226.936 107.421C232.114 132.317 227.715 158.25 214.618 180.046C201.522 201.842 180.69 217.9 156.278 225.016C131.865 232.131 105.667 229.782 82.9105 218.436C60.154 207.09 42.5117 187.581 33.5026 163.803C24.4936 140.024 24.7796 113.721 34.3053 90.1447C35.699 86.6953 39.6254 85.029 43.075 86.4224C46.5246 87.8161 48.1922 91.7425 46.7987 95.1921C38.5431 115.625 38.2935 138.421 46.1013 159.029C53.9092 179.637 69.2 196.544 88.9224 206.378C108.645 216.211 131.349 218.247 152.507 212.08C173.664 205.913 191.719 191.997 203.07 173.107C214.42 154.217 218.231 131.742 213.743 110.166C209.256 88.5897 196.799 69.4975 178.858 56.7C160.916 43.9025 138.809 38.3399 116.947 41.1211C95.0858 43.9023 75.0762 54.8233 60.9105 71.7053C58.5189 74.5554 54.2699 74.9271 51.4197 72.5355C48.5696 70.1439 48.1979 65.8949 50.5895 63.0447C66.9345 43.5655 90.0224 30.9643 115.247 27.7553Z" fill="currentColor"/>
<path d="M188.632 128C188.632 94.5141 161.486 67.3684 128 67.3684C94.5141 67.3684 67.3684 94.5141 67.3684 128C67.3684 161.486 94.5141 188.632 128 188.632C161.486 188.632 188.632 161.486 188.632 128ZM202.105 128C202.105 168.927 168.927 202.105 128 202.105C87.0728 202.105 53.8947 168.927 53.8947 128C53.8947 87.0728 87.0728 53.8947 128 53.8947C168.927 53.8947 202.105 87.0728 202.105 128Z" fill="currentColor"/>
<path d="M120.217 81.4895C131.291 79.6363 142.664 81.7946 152.288 87.5776C161.913 93.3607 169.158 102.389 172.721 113.037C176.284 123.685 175.93 135.255 171.724 145.666C167.517 156.076 159.735 164.644 149.775 169.829C139.815 175.014 128.333 176.474 117.392 173.949C106.451 171.423 96.771 165.076 90.0921 156.05C83.4133 147.024 80.1734 135.911 80.9566 124.711C81.2161 120.999 84.4358 118.201 88.1474 118.461C91.8588 118.72 94.6567 121.939 94.3974 125.65C93.8379 133.651 96.152 141.588 100.922 148.036C105.693 154.483 112.608 159.017 120.422 160.821C128.237 162.625 136.44 161.581 143.554 157.878C150.668 154.174 156.227 148.055 159.232 140.618C162.236 133.182 162.488 124.918 159.943 117.312C157.399 109.706 152.223 103.258 145.349 99.1276C138.474 94.9969 130.351 93.454 122.441 94.7776C114.53 96.1014 107.351 100.205 102.196 106.349C99.8044 109.198 95.5553 109.57 92.7053 107.179C89.8551 104.787 89.4834 100.537 91.875 97.6868C99.0925 89.0856 109.143 83.3427 120.217 81.4895Z" fill="currentColor"/>
</svg>
